<mxfile host="app.diagrams.net" agent="Mozilla/5.0 (Windows NT 10.0; Win64; x64) AppleWebKit/537.36 (KHTML, like Gecko) Chrome/136.0.0.0 Safari/537.36 Edg/136.0.0.0" version="27.0.3">
  <diagram name="Page-1" id="j06M1wQpIsWd-y3ybeLW">
    <mxGraphModel dx="2262" dy="1271" grid="1" gridSize="10" guides="1" tooltips="1" connect="1" arrows="1" fold="1" page="1" pageScale="1" pageWidth="850" pageHeight="1100" math="0" shadow="0">
      <root>
        <mxCell id="0" />
        <mxCell id="1" parent="0" />
        <mxCell id="jC6CJRBVqglciw-kXgH--7" value="ReportController" style="shape=umlLifeline;perimeter=lifelinePerimeter;whiteSpace=wrap;html=1;container=1;dropTarget=0;collapsible=0;recursiveResize=0;outlineConnect=0;portConstraint=eastwest;newEdgeStyle={&quot;curved&quot;:0,&quot;rounded&quot;:0};" vertex="1" parent="1">
          <mxGeometry x="30" y="110" width="100" height="660" as="geometry" />
        </mxCell>
        <mxCell id="jC6CJRBVqglciw-kXgH--8" value="Report" style="shape=umlLifeline;perimeter=lifelinePerimeter;whiteSpace=wrap;html=1;container=1;dropTarget=0;collapsible=0;recursiveResize=0;outlineConnect=0;portConstraint=eastwest;newEdgeStyle={&quot;curved&quot;:0,&quot;rounded&quot;:0};" vertex="1" parent="1">
          <mxGeometry x="250" y="110" width="100" height="660" as="geometry" />
        </mxCell>
        <mxCell id="jC6CJRBVqglciw-kXgH--15" value="" style="html=1;points=[[0,0,0,0,5],[0,1,0,0,-5],[1,0,0,0,5],[1,1,0,0,-5]];perimeter=orthogonalPerimeter;outlineConnect=0;targetShapes=umlLifeline;portConstraint=eastwest;newEdgeStyle={&quot;curved&quot;:0,&quot;rounded&quot;:0};" vertex="1" parent="jC6CJRBVqglciw-kXgH--8">
          <mxGeometry x="45" y="80" width="10" height="560" as="geometry" />
        </mxCell>
        <mxCell id="jC6CJRBVqglciw-kXgH--9" value="Vehicle" style="shape=umlLifeline;perimeter=lifelinePerimeter;whiteSpace=wrap;html=1;container=1;dropTarget=0;collapsible=0;recursiveResize=0;outlineConnect=0;portConstraint=eastwest;newEdgeStyle={&quot;curved&quot;:0,&quot;rounded&quot;:0};" vertex="1" parent="1">
          <mxGeometry x="450" y="110" width="100" height="660" as="geometry" />
        </mxCell>
        <mxCell id="jC6CJRBVqglciw-kXgH--16" value="" style="html=1;points=[[0,0,0,0,5],[0,1,0,0,-5],[1,0,0,0,5],[1,1,0,0,-5]];perimeter=orthogonalPerimeter;outlineConnect=0;targetShapes=umlLifeline;portConstraint=eastwest;newEdgeStyle={&quot;curved&quot;:0,&quot;rounded&quot;:0};" vertex="1" parent="jC6CJRBVqglciw-kXgH--9">
          <mxGeometry x="45" y="90" width="10" height="80" as="geometry" />
        </mxCell>
        <mxCell id="jC6CJRBVqglciw-kXgH--19" value="" style="html=1;points=[[0,0,0,0,5],[0,1,0,0,-5],[1,0,0,0,5],[1,1,0,0,-5]];perimeter=orthogonalPerimeter;outlineConnect=0;targetShapes=umlLifeline;portConstraint=eastwest;newEdgeStyle={&quot;curved&quot;:0,&quot;rounded&quot;:0};" vertex="1" parent="jC6CJRBVqglciw-kXgH--9">
          <mxGeometry x="45" y="220" width="10" height="80" as="geometry" />
        </mxCell>
        <mxCell id="jC6CJRBVqglciw-kXgH--10" value="Expense" style="shape=umlLifeline;perimeter=lifelinePerimeter;whiteSpace=wrap;html=1;container=1;dropTarget=0;collapsible=0;recursiveResize=0;outlineConnect=0;portConstraint=eastwest;newEdgeStyle={&quot;curved&quot;:0,&quot;rounded&quot;:0};" vertex="1" parent="1">
          <mxGeometry x="610" y="110" width="100" height="660" as="geometry" />
        </mxCell>
        <mxCell id="jC6CJRBVqglciw-kXgH--23" value="" style="html=1;points=[[0,0,0,0,5],[0,1,0,0,-5],[1,0,0,0,5],[1,1,0,0,-5]];perimeter=orthogonalPerimeter;outlineConnect=0;targetShapes=umlLifeline;portConstraint=eastwest;newEdgeStyle={&quot;curved&quot;:0,&quot;rounded&quot;:0};" vertex="1" parent="jC6CJRBVqglciw-kXgH--10">
          <mxGeometry x="45" y="330" width="10" height="80" as="geometry" />
        </mxCell>
        <mxCell id="jC6CJRBVqglciw-kXgH--11" value="Assignment" style="shape=umlLifeline;perimeter=lifelinePerimeter;whiteSpace=wrap;html=1;container=1;dropTarget=0;collapsible=0;recursiveResize=0;outlineConnect=0;portConstraint=eastwest;newEdgeStyle={&quot;curved&quot;:0,&quot;rounded&quot;:0};" vertex="1" parent="1">
          <mxGeometry x="770" y="110" width="100" height="670" as="geometry" />
        </mxCell>
        <mxCell id="jC6CJRBVqglciw-kXgH--27" value="" style="html=1;points=[[0,0,0,0,5],[0,1,0,0,-5],[1,0,0,0,5],[1,1,0,0,-5]];perimeter=orthogonalPerimeter;outlineConnect=0;targetShapes=umlLifeline;portConstraint=eastwest;newEdgeStyle={&quot;curved&quot;:0,&quot;rounded&quot;:0};" vertex="1" parent="jC6CJRBVqglciw-kXgH--11">
          <mxGeometry x="45" y="480" width="10" height="80" as="geometry" />
        </mxCell>
        <mxCell id="jC6CJRBVqglciw-kXgH--13" value="&lt;span style=&quot;font-size: 12px;&quot;&gt;generateVehicleReport()&lt;/span&gt;" style="html=1;verticalAlign=bottom;endArrow=block;curved=0;rounded=0;" edge="1" parent="1" target="jC6CJRBVqglciw-kXgH--8">
          <mxGeometry width="80" relative="1" as="geometry">
            <mxPoint x="80" y="190" as="sourcePoint" />
            <mxPoint x="160" y="190" as="targetPoint" />
          </mxGeometry>
        </mxCell>
        <mxCell id="jC6CJRBVqglciw-kXgH--14" value="getCurrentOdometer()" style="html=1;verticalAlign=bottom;endArrow=block;curved=0;rounded=0;" edge="1" parent="1" source="jC6CJRBVqglciw-kXgH--15">
          <mxGeometry width="80" relative="1" as="geometry">
            <mxPoint x="310" y="200.00000000000006" as="sourcePoint" />
            <mxPoint x="490" y="200" as="targetPoint" />
          </mxGeometry>
        </mxCell>
        <mxCell id="jC6CJRBVqglciw-kXgH--17" value="currentOdo" style="html=1;verticalAlign=bottom;endArrow=open;dashed=1;endSize=8;curved=0;rounded=0;" edge="1" parent="1" target="jC6CJRBVqglciw-kXgH--8">
          <mxGeometry relative="1" as="geometry">
            <mxPoint x="490" y="280" as="sourcePoint" />
            <mxPoint x="410" y="280" as="targetPoint" />
          </mxGeometry>
        </mxCell>
        <mxCell id="jC6CJRBVqglciw-kXgH--18" value="" style="html=1;verticalAlign=bottom;endArrow=block;curved=0;rounded=0;" edge="1" parent="1" source="jC6CJRBVqglciw-kXgH--8">
          <mxGeometry x="0.0021" y="10" width="80" relative="1" as="geometry">
            <mxPoint x="320" y="330" as="sourcePoint" />
            <mxPoint x="499.5" y="330" as="targetPoint" />
            <mxPoint as="offset" />
          </mxGeometry>
        </mxCell>
        <mxCell id="jC6CJRBVqglciw-kXgH--20" value="getMileage()" style="edgeLabel;html=1;align=center;verticalAlign=middle;resizable=0;points=[];" vertex="1" connectable="0" parent="jC6CJRBVqglciw-kXgH--18">
          <mxGeometry x="-0.0105" y="10" relative="1" as="geometry">
            <mxPoint as="offset" />
          </mxGeometry>
        </mxCell>
        <mxCell id="jC6CJRBVqglciw-kXgH--21" value="mileage" style="html=1;verticalAlign=bottom;endArrow=open;dashed=1;endSize=8;curved=0;rounded=0;" edge="1" parent="1" target="jC6CJRBVqglciw-kXgH--8">
          <mxGeometry relative="1" as="geometry">
            <mxPoint x="490" y="410" as="sourcePoint" />
            <mxPoint x="410" y="410" as="targetPoint" />
          </mxGeometry>
        </mxCell>
        <mxCell id="jC6CJRBVqglciw-kXgH--22" value="findVehicleId()" style="html=1;verticalAlign=bottom;endArrow=block;curved=0;rounded=0;" edge="1" parent="1" target="jC6CJRBVqglciw-kXgH--10">
          <mxGeometry width="80" relative="1" as="geometry">
            <mxPoint x="310" y="440" as="sourcePoint" />
            <mxPoint x="390" y="440" as="targetPoint" />
          </mxGeometry>
        </mxCell>
        <mxCell id="jC6CJRBVqglciw-kXgH--24" value="expenseList" style="html=1;verticalAlign=bottom;endArrow=open;dashed=1;endSize=8;curved=0;rounded=0;" edge="1" parent="1" target="jC6CJRBVqglciw-kXgH--8">
          <mxGeometry x="-0.0015" relative="1" as="geometry">
            <mxPoint x="660" y="520" as="sourcePoint" />
            <mxPoint x="580" y="520" as="targetPoint" />
            <mxPoint as="offset" />
          </mxGeometry>
        </mxCell>
        <mxCell id="jC6CJRBVqglciw-kXgH--25" value="findVehicleId" style="html=1;verticalAlign=bottom;endArrow=block;curved=0;rounded=0;" edge="1" parent="1" target="jC6CJRBVqglciw-kXgH--11">
          <mxGeometry width="80" relative="1" as="geometry">
            <mxPoint x="310" y="590" as="sourcePoint" />
            <mxPoint x="390" y="590" as="targetPoint" />
          </mxGeometry>
        </mxCell>
        <mxCell id="jC6CJRBVqglciw-kXgH--26" value="assignmentList" style="html=1;verticalAlign=bottom;endArrow=open;dashed=1;endSize=8;curved=0;rounded=0;" edge="1" parent="1" target="jC6CJRBVqglciw-kXgH--8">
          <mxGeometry relative="1" as="geometry">
            <mxPoint x="820" y="670" as="sourcePoint" />
            <mxPoint x="740" y="670" as="targetPoint" />
          </mxGeometry>
        </mxCell>
        <mxCell id="jC6CJRBVqglciw-kXgH--28" value="reportDTO" style="html=1;verticalAlign=bottom;endArrow=open;dashed=1;endSize=8;curved=0;rounded=0;" edge="1" parent="1" target="jC6CJRBVqglciw-kXgH--7">
          <mxGeometry relative="1" as="geometry">
            <mxPoint x="290" y="740" as="sourcePoint" />
            <mxPoint x="210" y="740" as="targetPoint" />
          </mxGeometry>
        </mxCell>
      </root>
    </mxGraphModel>
  </diagram>
</mxfile>
